HIERARCHY
ROOT hip
{
  OFFSET 0.0 0.0 0.0
  CHANNELS 6 Xposition Yposition Zposition Zrotation Yrotation Xrotation
  JOINT abdomen
  {
    OFFSET 0.0 20.6881 -0.73152
    CHANNELS 3 Zrotation Xrotation Yrotation
    JOINT chest
    {
      OFFSET 0.0 11.7043 -0.48768
      CHANNELS 3 Zrotation Xrotation Yrotation
      JOINT neck
      {
        OFFSET 0.0 22.1894 -2.19456
        CHANNELS 3 Zrotation Xrotation Yrotation
        JOINT head
        {
          OFFSET -0.24384 7.07133 1.2192
          CHANNELS 3 Zrotation Xrotation Yrotation
          JOINT leftEye
          {
            OFFSET 4.14528 8.04674 8.04672
            CHANNELS 3 Zrotation Xrotation Yrotation
            End Site
            {
              OFFSET 1.0 0.0 0.0
            }
          }
          JOINT rightEye
          {
            OFFSET -3.6576 8.04674 8.04672
            CHANNELS 3 Zrotation Xrotation Yrotation
            End Site
            {
              OFFSET 1.0 0.0 0.0
            }
          }
        }
      }
      JOINT rCollar
      {
        OFFSET -2.68224 19.2634 -4.8768
        CHANNELS 3 Zrotation Xrotation Yrotation
        JOINT rShldr
        {
          OFFSET -8.77824 -1.95073 1.46304
          CHANNELS 3 Zrotation Xrotation Yrotation
          JOINT rForeArm
          {
            OFFSET -28.1742 -1.7115 0.48768
            CHANNELS 3 Zrotation Xrotation Yrotation
            JOINT rHand
            {
              OFFSET -22.5879 0.773209 7.07136
              CHANNELS 3 Zrotation Xrotation Yrotation
              JOINT rThumb1
              {
                OFFSET -1.2192 -0.487915 3.41376
                CHANNELS 3 Zrotation Xrotation Yrotation
                JOINT rThumb2
                {
                  OFFSET -3.37035 -0.52449 3.41376
                  CHANNELS 3 Zrotation Xrotation Yrotation
                  End Site
                  {
                    OFFSET -1.78271 -1.18214 1.43049
                  }
                }
              }
              JOINT rIndex1
              {
                OFFSET -7.75947 0.938293 5.60832
                CHANNELS 3 Zrotation Xrotation Yrotation
                JOINT rIndex2
                {
                  OFFSET -2.54057 -0.884171 1.56538
                  CHANNELS 3 Zrotation Xrotation Yrotation
                  End Site
                  {
                    OFFSET -1.62519 -0.234802 1.16502
                  }
                }
              }
              JOINT rMid1
              {
                OFFSET -8.24714 1.18213 3.41376
                CHANNELS 3 Zrotation Xrotation Yrotation
                JOINT rMid2
                {
                  OFFSET -3.10165 -0.590103 1.0647
                  CHANNELS 3 Zrotation Xrotation Yrotation
                  End Site
                  {
                    OFFSET -2.48547 -0.328903 0.83742
                  }
                }
              }
              JOINT rRing1
              {
                OFFSET -8.82822 0.546677 1.51678
                CHANNELS 3 Zrotation Xrotation Yrotation
                JOINT rRing2
                {
                  OFFSET -2.60934 -0.819778 -0.0198488
                  CHANNELS 3 Zrotation Xrotation Yrotation
                  End Site
                  {
                    OFFSET -2.33842 -0.294052 0.168128
                  }
                }
              }
              JOINT rPinky1
              {
                OFFSET -8.27202 -0.0477905 -0.4584
                CHANNELS 3 Zrotation Xrotation Yrotation
                JOINT rPinky2
                {
                  OFFSET -1.82734 -0.647385 -0.700984
                  CHANNELS 3 Zrotation Xrotation Yrotation
                  End Site
                  {
                    OFFSET -1.69225 -0.51767 -0.607171
                  }
                }
              }
            }
          }
        }
      }
      JOINT lCollar
      {
        OFFSET 2.68224 19.2634 -4.8768
        CHANNELS 3 Zrotation Xrotation Yrotation
        JOINT lShldr
        {
          OFFSET 8.77824 -1.95073 1.46304
          CHANNELS 3 Zrotation Xrotation Yrotation
          JOINT lForeArm
          {
            OFFSET 28.1742 -1.7115 0.48768
            CHANNELS 3 Zrotation Xrotation Yrotation
            JOINT lHand
            {
              OFFSET 22.5879 0.773209 7.07136
              CHANNELS 3 Zrotation Xrotation Yrotation
              JOINT lThumb1
              {
                OFFSET 1.2192 -0.487915 3.41376
                CHANNELS 3 Zrotation Xrotation Yrotation
                JOINT lThumb2
                {
                  OFFSET 3.37035 -0.52449 3.41376
                  CHANNELS 3 Zrotation Xrotation Yrotation
                  End Site
                  {
                    OFFSET 1.78271 -1.18214 1.43049
                  }
                }
              }
              JOINT lIndex1
              {
                OFFSET 7.75947 0.938293 5.60832
                CHANNELS 3 Zrotation Xrotation Yrotation
                JOINT lIndex2
                {
                  OFFSET 2.54057 -0.884171 1.56538
                  CHANNELS 3 Zrotation Xrotation Yrotation
                  End Site
                  {
                    OFFSET 1.62519 -0.234802 1.16502
                  }
                }
              }
              JOINT lMid1
              {
                OFFSET 8.24714 1.18213 3.41376
                CHANNELS 3 Zrotation Xrotation Yrotation
                JOINT lMid2
                {
                  OFFSET 3.10165 -0.590103 1.0647
                  CHANNELS 3 Zrotation Xrotation Yrotation
                  End Site
                  {
                    OFFSET 2.48547 -0.328903 0.83742
                  }
                }
              }
              JOINT lRing1
              {
                OFFSET 8.82822 0.546677 1.51678
                CHANNELS 3 Zrotation Xrotation Yrotation
                JOINT lRing2
                {
                  OFFSET 2.60934 -0.819778 -0.0198488
                  CHANNELS 3 Zrotation Xrotation Yrotation
                  End Site
                  {
                    OFFSET 2.33842 -0.294052 0.168128
                  }
                }
              }
              JOINT lPinky1
              {
                OFFSET 8.27202 -0.0477905 -0.4584
                CHANNELS 3 Zrotation Xrotation Yrotation
                JOINT lPinky2
                {
                  OFFSET 1.82734 -0.647385 -0.700984
                  CHANNELS 3 Zrotation Xrotation Yrotation
                  End Site
                  {
                    OFFSET 1.69225 -0.51767 -0.607171
                  }
                }
              }
            }
          }
        }
      }
    }
  }
  JOINT rButtock
  {
    OFFSET -8.77824 4.35084 1.2192
    CHANNELS 3 Zrotation Xrotation Yrotation
    JOINT rThigh
    {
      OFFSET 0.0 -1.70687 -2.19456
      CHANNELS 3 Zrotation Xrotation Yrotation
      JOINT rShin
      {
        OFFSET 0.0 -36.8199 0.73152
        CHANNELS 3 Zrotation Xrotation Yrotation
        JOINT rFoot
        {
          OFFSET 0.73152 -45.1104 -5.12064
          CHANNELS 3 Zrotation Xrotation Yrotation
          End Site
          {
            OFFSET -1.1221 -3.69964 12.103
          }
        }
      }
    }
  }
  JOINT lButtock
  {
    OFFSET 8.77824 4.35084 1.2192
    CHANNELS 3 Zrotation Xrotation Yrotation
    JOINT lThigh
    {
      OFFSET 0.0 -1.70687 -2.19456
      CHANNELS 3 Zrotation Xrotation Yrotation
      JOINT lShin
      {
        OFFSET 0.0 -36.8199 0.73152
        CHANNELS 3 Zrotation Xrotation Yrotation
        JOINT lFoot
        {
          OFFSET -0.73152 -45.1104 -5.12064
          CHANNELS 3 Zrotation Xrotation Yrotation
          End Site
          {
            OFFSET 1.1221 -3.69964 12.103
          }
        }
      }
    }
  }
}
MOTION
Frames: 6
Frame Time: 0.00833333
5.9043410000000005 82.0234 61.61530000000002 8.625 -0.4115 7.534 -11.9205 9.33662 -5.12883 6.80289 -6.18174 -1.33425 5.89192 -0.340878 2.07014 -9.32715 -5.22441 1.98358 -0.0 0.0 0.0 -0.0 0.0 0.0 -9.46515e-14 -3.94392e-13 -1.13605e-13 75.3432 0.639627 -16.9793 -8.09166 -3.05984 14.2682 -0.0549941 6.67708 0.942716 5.61941e-10 -2.72078e-09 3.02944e-09 9.89821e-10 -4.69939e-09 5.22981e-09 5.61946e-10 -2.72078e-09 3.02943e-09 7.73091 5.47488 0.417314 5.6194e-10 -2.72078e-09 3.02944e-09 2.90554 0.965183 0.102902 5.61943e-10 -2.72078e-09 3.02944e-09 10.2786 0.731801 0.0259123 5.61936e-10 -2.72077e-09 3.02945e-09 2.22167 -0.733487 -0.20892 -9.45978e-14 -3.94385e-13 -1.13755e-13 -69.5735 24.4968 -19.2073 14.7985 -7.6171 -27.1749 0.27299 -14.7106 2.11458 1.97764e-10 -1.25446e-09 -1.26543e-09 3.47434e-10 -2.15444e-09 -2.18296e-09 1.9776e-10 -1.25446e-09 -1.26543e-09 -7.73091 5.47488 -0.417314 1.97765e-10 -1.25446e-09 -1.26543e-09 -2.90554 0.965183 -0.102902 1.97754e-10 -1.25446e-09 -1.26544e-09 -10.2786 0.731801 -0.0259123 1.97767e-10 -1.25446e-09 -1.26545e-09 -2.22167 -0.733487 0.20892 -2.03217e-16 0.0 -3.88251e-19 -22.0902 -50.3723 -18.5752 -0.673524 51.8282 1.04916 -3.30429 -2.98309 -15.0907 2.03217e-16 0.0 3.88251e-19 -12.8146 -1.82784 1.55347 -0.0108094 17.5019 -0.590127 3.72336 -10.632 13.5213
5.883241 82.0637 63.051400000000015 8.6303 -0.0003 7.6172 -11.9199 9.18977 -5.50051 6.95132 -6.06084 -1.43012 5.8535 -0.269096 1.98263 -9.15391 -5.2912 1.83073 -0.0 0.0 0.0 -0.0 0.0 0.0 -1.0677e-13 -3.58784e-13 -1.02059e-13 74.3947 -2.04852 -18.2746 -7.72119 -2.86788 13.5917 -0.0954096 8.88894 1.25986 8.17472e-10 -2.00961e-09 2.19742e-09 1.42273e-09 -3.47636e-09 3.78624e-09 8.17479e-10 -2.00961e-09 2.19741e-09 7.73091 5.47488 0.417314 8.17471e-10 -2.00961e-09 2.19742e-09 2.90554 0.965183 0.102902 8.17474e-10 -2.00961e-09 2.19742e-09 10.2786 0.731801 0.0259123 8.17467e-10 -2.00961e-09 2.19743e-09 2.22167 -0.733487 -0.20892 -1.06782e-13 -3.58779e-13 -1.02235e-13 -68.4027 24.6018 -20.8147 15.2237 -7.98581 -28.0488 0.290735 -15.1516 2.18118 7.31548e-10 2.71881e-10 -1.11983e-09 1.27055e-09 4.88279e-10 -1.92567e-09 7.31544e-10 2.71879e-10 -1.11983e-09 -7.73091 5.47488 -0.417314 7.31548e-10 2.71881e-10 -1.11983e-09 -2.90554 0.965183 -0.102902 7.3154e-10 2.71883e-10 -1.11984e-09 -10.2786 0.731801 -0.0259123 7.31552e-10 2.71881e-10 -1.11985e-09 -2.22167 -0.733487 0.20892 -2.03217e-16 0.0 -3.88251e-19 -21.6554 -50.5403 -18.3537 -0.546823 48.1888 0.896925 -3.25615 -2.94139 -15.2593 2.03217e-16 0.0 3.88251e-19 -12.7133 0.0748839 1.36465 -0.0153579 15.6689 -0.559619 3.52675 -9.94235 13.4472
5.857241 82.1114 64.49120000000002 8.6307 0.4441 7.7201 -11.8842 8.99496 -5.87502 7.08614 -5.90272 -1.52932 5.82027 -0.220141 1.9032 -8.98083 -5.36297 1.69008 -0.0 0.0 0.0 -0.0 0.0 0.0 -1.43144e-13 -2.67565e-13 -7.85976e-14 73.2711 -4.8689 -19.6145 -7.34488 -2.67874 12.9067 -0.163245 11.3312 1.61714 1.24757e-09 -7.15692e-10 6.74457e-10 2.15093e-09 -1.24966e-09 1.14617e-09 1.24758e-09 -7.1569e-10 6.74444e-10 7.73091 5.47488 0.417314 1.24757e-09 -7.15694e-10 6.74458e-10 2.90554 0.965183 0.102902 1.24757e-09 -7.15693e-10 6.74456e-10 10.2786 0.731801 0.0259123 1.24756e-09 -7.15691e-10 6.74462e-10 2.22167 -0.733487 -0.20892 -1.43265e-13 -2.67564e-13 -7.88399e-14 -67.2582 24.6258 -22.3821 15.6466 -8.36296 -28.93 0.304591 -15.4939 2.23299 1.5764e-09 2.7813e-09 -8.13189e-10 2.73092e-09 4.83131e-09 -1.38751e-09 1.57639e-09 2.78129e-09 -8.13181e-10 -7.73091 5.47488 -0.417314 1.57639e-09 2.78129e-09 -8.1319e-10 -2.90554 0.965183 -0.102902 1.57639e-09 2.7813e-09 -8.13195e-10 -10.2786 0.731801 -0.0259123 1.5764e-09 2.7813e-09 -8.13208e-10 -2.22167 -0.733487 0.20892 -2.03217e-16 0.0 -3.88251e-19 -21.1726 -50.537 -18.0623 -0.439366 44.3482 0.756484 -3.15301 -2.75025 -15.3851 2.03217e-16 0.0 3.88251e-19 -12.5525 2.03341 1.18491 -0.017319 13.6617 -0.518931 3.28417 -9.14877 13.2798
5.824721 82.1618 65.93870000000001 8.6168 0.9169 7.8363 -11.8325 8.77908 -6.25227 7.20768 -5.72758 -1.63166 5.78151 -0.188417 1.82774 -8.80942 -5.42373 1.55805 -0.0 0.0 0.0 -0.0 0.0 0.0 -1.76848e-13 -1.56667e-13 -5.19539e-14 71.9622 -7.86169 -21.0201 -6.97607 -2.49801 12.239 -0.254431 14.018 2.01531 1.62619e-09 5.99489e-10 -9.16447e-10 2.78952e-09 1.01338e-09 -1.60992e-09 1.6262e-09 5.99491e-10 -9.1646e-10 7.73091 5.47488 0.417314 1.62619e-09 5.99486e-10 -9.16446e-10 2.90554 0.965183 0.102902 1.6262e-09 5.99486e-10 -9.16449e-10 10.2786 0.731801 0.0259123 1.62619e-09 5.99489e-10 -9.16443e-10 2.22167 -0.733487 -0.20892 -1.77075e-13 -1.56669e-13 -5.2266e-14 -66.1479 24.6144 -23.8859 16.067 -8.74931 -29.8157 0.317774 -15.8233 2.28288 2.33763e-09 5.13149e-09 -4.81012e-10 4.04662e-09 8.89842e-09 -8.06434e-10 2.33762e-09 5.13148e-09 -4.81001e-10 -7.73091 5.47488 -0.417314 2.33762e-09 5.13148e-09 -4.81013e-10 -2.90554 0.965183 -0.102902 2.33762e-09 5.13149e-09 -4.81018e-10 -10.2786 0.731801 -0.0259123 2.33763e-09 5.13149e-09 -4.81032e-10 -2.22167 -0.733487 0.20892 -2.03217e-16 0.0 -3.88251e-19 -20.6693 -50.4148 -17.6634 -0.356888 40.606 0.641563 -3.06036 -2.601 -15.513 2.03217e-16 0.0 3.88251e-19 -12.3449 4.02743 0.973013 -0.0178251 11.571 -0.474284 2.99772 -8.26091 12.9917
5.782901000000001 82.2134 67.40250000000002 8.5824 1.4241 7.9524 -11.7829 8.56896 -6.63225 7.3161 -5.55559 -1.737 5.72655 -0.168321 1.75211 -8.64108 -5.45745 1.43109 -0.0 0.0 0.0 -0.0 0.0 0.0 -1.80959e-13 -6.20204e-14 -3.08613e-14 70.4486 -11.0636 -22.5205 -6.62868 -2.33143 11.614 -0.366438 16.9631 2.45694 1.72731e-09 1.37444e-09 -1.95228e-09 2.9536e-09 2.34544e-09 -3.40157e-09 1.72732e-09 1.37444e-09 -1.95229e-09 7.73091 5.47488 0.417314 1.72731e-09 1.37444e-09 -1.95228e-09 2.90554 0.965183 0.102902 1.72731e-09 1.37444e-09 -1.95228e-09 10.2786 0.731801 0.0259123 1.72731e-09 1.37444e-09 -1.95227e-09 2.22167 -0.733487 -0.20892 -1.81239e-13 -6.2023e-14 -3.12092e-14 -65.0744 24.6129 -25.305 16.485 -9.14566 -30.7031 0.334178 -16.2256 2.34399 2.62055e-09 6.18015e-09 -2.58814e-10 4.53575e-09 1.07134e-08 -4.20392e-10 2.62055e-09 6.18015e-09 -2.58802e-10 -7.73091 5.47488 -0.417314 2.62055e-09 6.18015e-09 -2.58814e-10 -2.90554 0.965183 -0.102902 2.62055e-09 6.18015e-09 -2.58819e-10 -10.2786 0.731801 -0.0259123 2.62056e-09 6.18015e-09 -2.58834e-10 -2.22167 -0.733487 0.20892 -2.03217e-16 0.0 -3.88251e-19 -20.1738 -50.2256 -17.1196 -0.297624 37.2622 0.560324 -3.04518 -2.68457 -15.6878 2.03217e-16 0.0 3.88251e-19 -12.0972 6.03667 0.687191 -0.019116 9.48775 -0.43147 2.67219 -7.28772 12.5555
5.742211 82.2674 68.88780000000001 8.5525 1.9751 8.0625 -11.7551 8.35487 -7.0319 7.41619 -5.37966 -1.85109 5.64925 -0.161312 1.67473 -8.46196 -5.47156 1.30786 -0.0 0.0 0.0 -0.0 0.0 0.0 -1.27281e-13 1.77658e-14 -1.29039e-14 68.6133 -14.6466 -24.1883 -6.29574 -2.17699 11.0163 -0.518989 20.3557 2.98094 1.32569e-09 1.26713e-09 -2.19673e-09 2.25625e-09 2.15736e-09 -3.8154e-09 1.3257e-09 1.26713e-09 -2.19674e-09 7.73091 5.47488 0.417314 1.32569e-09 1.26713e-09 -2.19673e-09 2.90554 0.965183 0.102902 1.32569e-09 1.26713e-09 -2.19674e-09 10.2786 0.731801 0.0259123 1.32569e-09 1.26713e-09 -2.19673e-09 2.22167 -0.733487 -0.20892 -1.2753e-13 1.77655e-14 -1.32343e-14 -64.0204 24.6375 -26.6502 16.9036 -9.55553 -31.6012 0.35718 -16.769 2.42694 2.05096e-09 4.83421e-09 -1.69102e-10 3.5514e-09 8.38284e-09 -2.72618e-10 2.05095e-09 4.83421e-09 -1.69091e-10 -7.73091 5.47488 -0.417314 2.05095e-09 4.83421e-09 -1.69101e-10 -2.90554 0.965183 -0.102902 2.05095e-09 4.83421e-09 -1.69105e-10 -10.2786 0.731801 -0.0259123 2.05096e-09 4.83421e-09 -1.69117e-10 -2.22167 -0.733487 0.20892 -2.03217e-16 0.0 -3.88251e-19 -19.7088 -49.9616 -16.3522 -0.250832 34.2742 0.509136 -3.14953 -3.10076 -15.9891 2.03217e-16 0.0 3.88251e-19 -11.8118 8.16099 0.28159 -0.0235903 7.21573 -0.386515 2.29423 -6.16785 11.9362
